<svg xmlns="http://www.w3.org/2000/svg" width="32" height="41.649" viewBox="0 0 32 41.649"><defs><style>.a{fill:#16498b;}</style></defs><g transform="translate(-70.293)"><g transform="translate(70.293)"><g transform="translate(0)"><path class="a" d="M95.245,5.951a11.4,11.4,0,0,0-2.53-1.205,6.788,6.788,0,0,0-1.788-2.627,6.18,6.18,0,0,0-8.339,0A6.788,6.788,0,0,0,80.8,4.746a11.4,11.4,0,0,0-2.53,1.205H74.783a4,4,0,0,0-3.99,3.99V38.09a4,4,0,0,0,3.99,3.991h23.95a4,4,0,0,0,3.99-3.991V9.941a4,4,0,0,0-3.99-3.99Zm-11.886.511a4.067,4.067,0,0,1,.134-.511,3.38,3.38,0,0,1,6.532,0,4.067,4.067,0,0,1,.134.511,1.057,1.057,0,0,0,.775.816,8.054,8.054,0,0,1,3.329,1.614,3.64,3.64,0,0,1,.319.328.849.849,0,0,1-.643,1.4H79.579a.849.849,0,0,1-.643-1.4,3.631,3.631,0,0,1,.319-.328,8.052,8.052,0,0,1,3.329-1.614A1.057,1.057,0,0,0,83.359,6.462Zm16.425,3.48V38.09a1.05,1.05,0,0,1-1.05,1.05H74.784a1.05,1.05,0,0,1-1.05-1.05V9.941a1.05,1.05,0,0,1,1.05-1.05h1.11a3.785,3.785,0,0,0,3.685,4.67h14.36a3.787,3.787,0,0,0,3.685-4.67h1.11A1.05,1.05,0,0,1,99.784,9.941Z" transform="translate(-70.759 -0.466)"/><path class="a" d="M98.268,41.649H74.318a4.029,4.029,0,0,1-4.025-4.025V9.476a4.029,4.029,0,0,1,4.025-4.025H77.8a11.374,11.374,0,0,1,2.514-1.2A6.832,6.832,0,0,1,82.1,1.627a6.214,6.214,0,0,1,8.385,0,6.832,6.832,0,0,1,1.791,2.626,11.37,11.37,0,0,1,2.514,1.2h3.478a4.029,4.029,0,0,1,4.025,4.025V37.624A4.029,4.029,0,0,1,98.268,41.649ZM74.318,5.519a3.961,3.961,0,0,0-3.956,3.956V37.624a3.961,3.961,0,0,0,3.956,3.956h23.95a3.961,3.961,0,0,0,3.956-3.956V9.476a3.961,3.961,0,0,0-3.956-3.956h-3.5l-.009-.006a11.31,11.31,0,0,0-2.522-1.2l-.015-.005-.006-.015a6.764,6.764,0,0,0-1.779-2.614,6.145,6.145,0,0,0-8.293,0,6.765,6.765,0,0,0-1.779,2.614l-.006.015-.015.005a11.312,11.312,0,0,0-2.522,1.2l-.009.006Zm23.95,33.189H74.318a1.086,1.086,0,0,1-1.084-1.085V9.476a1.086,1.086,0,0,1,1.084-1.084h1.154l-.01.042a3.751,3.751,0,0,0,3.652,4.627h14.36a3.753,3.753,0,0,0,3.652-4.627l-.01-.042h1.154a1.086,1.086,0,0,1,1.084,1.084V37.624A1.086,1.086,0,0,1,98.268,38.709ZM74.318,8.46A1.017,1.017,0,0,0,73.3,9.476V37.624a1.017,1.017,0,0,0,1.016,1.016h23.95a1.017,1.017,0,0,0,1.016-1.016V9.476A1.017,1.017,0,0,0,98.268,8.46H97.2a3.834,3.834,0,0,1-1.6,4.025,3.806,3.806,0,0,1-2.129.645H79.113a3.822,3.822,0,0,1-3.728-4.67Zm19.155,1.729H79.113a.883.883,0,0,1-.669-1.458,3.683,3.683,0,0,1,.322-.331,8.049,8.049,0,0,1,3.343-1.622,1.028,1.028,0,0,0,.75-.789,4.117,4.117,0,0,1,.135-.515,3.414,3.414,0,0,1,6.6,0,4.131,4.131,0,0,1,.135.515,1.028,1.028,0,0,0,.75.789A8.05,8.05,0,0,1,93.82,8.4a3.7,3.7,0,0,1,.322.331.883.883,0,0,1-.669,1.458Zm-7.18-7.18A3.484,3.484,0,0,0,83.06,5.5,4.039,4.039,0,0,0,82.927,6a1.1,1.1,0,0,1-.8.842,7.982,7.982,0,0,0-3.314,1.606,3.615,3.615,0,0,0-.316.325.814.814,0,0,0,.617,1.345h14.36a.814.814,0,0,0,.617-1.345,3.6,3.6,0,0,0-.316-.325,7.984,7.984,0,0,0-3.314-1.606,1.1,1.1,0,0,1-.8-.842,4.05,4.05,0,0,0-.133-.507A3.484,3.484,0,0,0,86.293,3.009Z" transform="translate(-70.293)"/></g><g transform="translate(14.482 4.497)"><path class="a" d="M283.271,68.989a1.484,1.484,0,1,0-1.484-1.484A1.484,1.484,0,0,0,283.271,68.989Z" transform="translate(-281.753 -65.987)"/><path class="a" d="M282.805,68.559a1.518,1.518,0,1,1,1.518-1.518A1.52,1.52,0,0,1,282.805,68.559Zm0-2.968a1.45,1.45,0,1,0,1.45,1.45,1.442,1.442,0,0,0-.1-.518A1.458,1.458,0,0,0,282.805,65.591Z" transform="translate(-281.287 -65.522)"/></g><g transform="translate(6.836 18.898)"><path class="a" d="M186.136,276.265l-9.477,9.477-3.763-3.763a1.47,1.47,0,1,0-2.079,2.079l4.8,4.8a1.47,1.47,0,0,0,2.079,0l10.517-10.517a1.47,1.47,0,0,0-2.079-2.079Z" transform="translate(-170.352 -275.8)"/><path class="a" d="M176.2,288.859a1.5,1.5,0,0,1-1.064-.441l-4.8-4.8a1.5,1.5,0,1,1,2.128-2.128l3.739,3.739,9.453-9.453a1.5,1.5,0,0,1,2.128,2.128l-10.517,10.517A1.5,1.5,0,0,1,176.2,288.859Zm-4.8-7.743a1.436,1.436,0,0,0-1.015,2.451l4.8,4.8a1.436,1.436,0,0,0,2.031,0l10.517-10.517a1.436,1.436,0,0,0-2.031-2.031l-9.5,9.5-3.788-3.788A1.427,1.427,0,0,0,171.4,281.115Z" transform="translate(-169.897 -275.333)"/></g></g></g></svg>