<svg xmlns="http://www.w3.org/2000/svg" width="32" height="41.649" viewBox="0 0 32 41.649"><defs><style>.a,.b{fill:#16498b;}.b{font-size:19px;font-family:Oxygen-Bold, Oxygen;font-weight:700;}</style></defs><g transform="translate(-70.294)"><g transform="translate(70.294)"><g transform="translate(0)"><path class="a" d="M95.246,5.951a11.4,11.4,0,0,0-2.53-1.205,6.787,6.787,0,0,0-1.788-2.627,6.18,6.18,0,0,0-8.339,0A6.788,6.788,0,0,0,80.8,4.746a11.4,11.4,0,0,0-2.53,1.205H74.784a4,4,0,0,0-3.99,3.99V38.09a4,4,0,0,0,3.99,3.991h23.95a4,4,0,0,0,3.99-3.991V9.941a4,4,0,0,0-3.99-3.99H95.246ZM83.36,6.462a4.054,4.054,0,0,1,.134-.511,3.38,3.38,0,0,1,6.532,0,4.048,4.048,0,0,1,.134.511,1.057,1.057,0,0,0,.775.816,8.054,8.054,0,0,1,3.329,1.614,3.63,3.63,0,0,1,.319.328.849.849,0,0,1-.643,1.4H79.58a.849.849,0,0,1-.643-1.4,3.63,3.63,0,0,1,.319-.328,8.052,8.052,0,0,1,3.329-1.614A1.057,1.057,0,0,0,83.36,6.462Zm16.425,3.48V38.09a1.05,1.05,0,0,1-1.05,1.05H74.785a1.05,1.05,0,0,1-1.05-1.05V9.941a1.05,1.05,0,0,1,1.05-1.05h1.11a3.785,3.785,0,0,0,3.685,4.67H93.94a3.787,3.787,0,0,0,3.685-4.67h1.11A1.05,1.05,0,0,1,99.785,9.941Z" transform="translate(-70.76 -0.466)"/><path class="a" d="M98.269,41.649H74.319a4.029,4.029,0,0,1-4.025-4.025V9.476a4.029,4.029,0,0,1,4.025-4.025H77.8a11.375,11.375,0,0,1,2.514-1.2A6.832,6.832,0,0,1,82.1,1.627a6.214,6.214,0,0,1,8.385,0,6.832,6.832,0,0,1,1.791,2.626,11.375,11.375,0,0,1,2.513,1.2h3.478a4.029,4.029,0,0,1,4.025,4.025V37.624A4.029,4.029,0,0,1,98.269,41.649ZM74.319,5.519a3.961,3.961,0,0,0-3.956,3.956V37.624a3.961,3.961,0,0,0,3.956,3.956h23.95a3.961,3.961,0,0,0,3.956-3.956V9.476a3.961,3.961,0,0,0-3.956-3.956h-3.5l-.009-.006a11.31,11.31,0,0,0-2.522-1.2l-.015-.005-.006-.015A6.764,6.764,0,0,0,90.44,1.678a6.145,6.145,0,0,0-8.293,0,6.764,6.764,0,0,0-1.779,2.614l-.006.015-.015.005a11.306,11.306,0,0,0-2.522,1.2l-.009.006h-3.5Zm23.95,33.189H74.319a1.086,1.086,0,0,1-1.084-1.085V9.476a1.086,1.086,0,0,1,1.084-1.084h1.154l-.01.042a3.751,3.751,0,0,0,3.652,4.627h14.36a3.752,3.752,0,0,0,3.652-4.627l-.01-.042h1.154a1.086,1.086,0,0,1,1.084,1.084V37.624A1.086,1.086,0,0,1,98.269,38.709ZM74.319,8.46A1.017,1.017,0,0,0,73.3,9.476V37.624a1.017,1.017,0,0,0,1.016,1.016h23.95a1.017,1.017,0,0,0,1.016-1.016V9.476A1.017,1.017,0,0,0,98.269,8.46H97.2a3.819,3.819,0,0,1-3.728,4.67H79.114a3.822,3.822,0,0,1-3.728-4.67Zm19.155,1.729H79.114a.883.883,0,0,1-.669-1.458,3.687,3.687,0,0,1,.322-.331A8.049,8.049,0,0,1,82.11,6.779a1.028,1.028,0,0,0,.75-.789A4.115,4.115,0,0,1,83,5.475a3.414,3.414,0,0,1,6.6,0,4.122,4.122,0,0,1,.135.515,1.028,1.028,0,0,0,.75.789A8.051,8.051,0,0,1,93.821,8.4a3.685,3.685,0,0,1,.322.331.883.883,0,0,1-.669,1.458Zm-7.18-7.18A3.484,3.484,0,0,0,83.061,5.5,4.03,4.03,0,0,0,82.928,6a1.1,1.1,0,0,1-.8.842,7.982,7.982,0,0,0-3.314,1.606,3.612,3.612,0,0,0-.316.325.814.814,0,0,0,.617,1.345h14.36a.814.814,0,0,0,.617-1.345,3.611,3.611,0,0,0-.316-.325A7.983,7.983,0,0,0,90.46,6.845,1.1,1.1,0,0,1,89.66,6a4.024,4.024,0,0,0-.133-.507A3.483,3.483,0,0,0,86.294,3.009Z" transform="translate(-70.294)"/></g><g transform="translate(14.482 4.497)"><path class="a" d="M283.272,68.989a1.484,1.484,0,1,0-1.484-1.484A1.484,1.484,0,0,0,283.272,68.989Z" transform="translate(-281.754 -65.987)"/><path class="a" d="M282.805,68.559a1.518,1.518,0,1,1,1.518-1.518A1.52,1.52,0,0,1,282.805,68.559Zm0-2.968a1.458,1.458,0,0,0-1.354.932,1.45,1.45,0,1,0,2.708,0A1.458,1.458,0,0,0,282.805,65.591Z" transform="translate(-281.287 -65.522)"/></g><text class="b" transform="translate(13.77 32)"><tspan x="0" y="0">!</tspan></text></g></g></svg>