<svg xmlns="http://www.w3.org/2000/svg" width="59.98" height="52.477" viewBox="0 0 59.98 52.477"><defs><style>.a{fill:#16498b;}.b{fill:#f79a1b;}.c{fill:#74500f;}.d{fill:#6b4500;}.e{fill:#f8a83b;}.f{fill:#edebed;}.g{fill:#fbd39a;}.h{fill:#fbce8f;}.i{fill:#86a0c3;}.j{fill:#fef2e2;}.k{fill:#f8a534;}.l{fill:#fef6ea;}.m{fill:#fcd8a5;}</style></defs><g transform="translate(0.038 -31.9)"><path class="a" d="M243.632,271.776l-5.286-2.076H219.593l-5.286,2.076a5.108,5.108,0,0,0-3.235,4.969l.708,17.654h34.38l.708-17.654A5.107,5.107,0,0,0,243.632,271.776Z" transform="translate(-187.882 -210.998)"/><rect class="b" width="11.94" height="10.231" transform="translate(35.767 52.971)"/><path class="c" d="M284.131,39.106a11.041,11.041,0,0,0-6.678,2.552s-3.553,0-3.553,4.261a31.742,31.742,0,0,0,.855,6.788h19.607C296.059,43.343,292.018,38.679,284.131,39.106Z" transform="translate(-243.043 -6.303)"/><path class="d" d="M279.016,67.745a7.69,7.69,0,0,1-1.563-7.545s-3.553,0-3.553,4.261a31.742,31.742,0,0,0,.855,6.788h4.261Z" transform="translate(-241.979 -24.845)"/><path class="e" d="M287.362,116.936h-.855l-1.673-2.027c-7.667,1.6-11.7-1.709-11.7-1.709-.415,2.649-2.991,4.652-2.991,4.652l-1.575-.916h0a2.182,2.182,0,0,0-.281.024,1.8,1.8,0,0,0-1.392,1.795v.623a1.8,1.8,0,0,0,1.367,1.783,1.563,1.563,0,0,0,.476.024.823.823,0,0,1,.867.684,8.513,8.513,0,0,0,16.751.012.827.827,0,0,1,.83-.684h.171a1.714,1.714,0,0,0,1.709-1.709v-.855A1.7,1.7,0,0,0,287.362,116.936Z" transform="translate(-236.898 -71.941)"/><path class="f" d="M456.9,307.512l3.711-3.711a5.159,5.159,0,0,1,.757,2.869l-.708,17.654H455.4v-13.2A5.152,5.152,0,0,1,456.9,307.512Z" transform="translate(-402.384 -240.935)"/><path class="g" d="M339.885,297.7h-3.431l-.855,21.268h5.14Z" transform="translate(-296.481 -235.58)"/><path class="h" d="M344.9,302.339l-.183-4.639h-3.431l-.183,4.639Z" transform="translate(-301.297 -234.795)"/><g transform="translate(32.264 57.07)"><path class="i" d="M290.276,254.67l-6.825-5.97-2.552,2.552,3.956,5.946a1.7,1.7,0,0,0,2.625.256Z" transform="translate(-280.9 -248.7)"/><path class="i" d="M357.7,254.67l6.825-5.97,2.552,2.552-3.968,5.946a1.7,1.7,0,0,1-2.625.256Z" transform="translate(-348.324 -248.7)"/></g><path class="b" d="M279.758,136.067a8.527,8.527,0,0,1-6.8-8.351V121.6a9.5,9.5,0,0,1-2.71,3.626l-1.575-.916h0a2.181,2.181,0,0,0-.281.024A1.8,1.8,0,0,0,267,126.13v.623a1.8,1.8,0,0,0,1.367,1.783,1.563,1.563,0,0,0,.476.024.823.823,0,0,1,.867.684,8.485,8.485,0,0,0,10.048,6.825Z" transform="translate(-236.106 -79.358)"/><path class="g" d="M35.186,313.4l-4.6-2H15.237l-4.6,2A5.133,5.133,0,0,0,7.57,318.31l.537,12.7H37.713l.537-12.7A5.133,5.133,0,0,0,35.186,313.4Z" transform="translate(-6.675 -247.607)"/><rect class="j" width="8.522" height="8.522" transform="translate(11.401 58.694)"/><circle class="k" cx="5.116" cy="5.116" r="5.116" transform="translate(10.581 32.779)"/><ellipse class="k" cx="10.231" cy="9.804" rx="10.231" ry="9.804" transform="translate(6.01 37.04)"/><path class="k" d="M56.313,105.792c-3.406-3.406-3.919-6.349-3.834-8.192a9.483,9.483,0,0,0-1.514,11.965Z" transform="translate(-43.49 -57.679)"/><path class="l" d="M63.392,151.7a4.182,4.182,0,0,0-.488-.037,1.72,1.72,0,0,1-1.209-.5l-1.172-.891a16.474,16.474,0,0,1-11.5-2.369,10.238,10.238,0,0,1-3.138,4.285l-1.612-.525h0a2.183,2.183,0,0,0-.281.024,1.8,1.8,0,0,0-1.392,1.795v.623a1.8,1.8,0,0,0,1.367,1.782,1.562,1.562,0,0,0,.476.024.823.823,0,0,1,.867.684,8.514,8.514,0,0,0,16.751.024.823.823,0,0,1,.867-.7,2.083,2.083,0,0,0,.549-.037,1.77,1.77,0,0,0,1.294-1.782c-.012-.391-.012-.769-.012-.769A1.8,1.8,0,0,0,63.392,151.7Z" transform="translate(-37.432 -102.647)"/><g transform="translate(0.89 66.918)"><path class="m" d="M12.146,340.736,9.033,337a5.114,5.114,0,0,0-1.465,3.785l.537,12.7h5.421v-8.925A5.9,5.9,0,0,0,12.146,340.736Z" transform="translate(-7.563 -337)"/><path class="m" d="M211.48,340.736,214.593,337a5.114,5.114,0,0,1,1.465,3.785l-.537,12.7H210.1v-8.925A5.968,5.968,0,0,1,211.48,340.736Z" transform="translate(-185.373 -337)"/></g><path class="j" d="M48.558,162.792V156.7a12.258,12.258,0,0,1-2.674,3.211l-1.612-.525h0a2.18,2.18,0,0,0-.281.024,1.8,1.8,0,0,0-1.392,1.795v.623a1.8,1.8,0,0,0,1.367,1.782,1.562,1.562,0,0,0,.476.024.823.823,0,0,1,.867.684,8.5,8.5,0,0,0,10.06,6.825A8.515,8.515,0,0,1,48.558,162.792Z" transform="translate(-37.432 -110.411)"/><g transform="translate(8.281 61.844)"><path class="m" d="M75.816,294.64l-5.14-5.14L68.1,292.064l3.174,5.14a.852.852,0,0,0,1.282.208Z" transform="translate(-68.1 -289.5)"/><path class="m" d="M131.3,294.64l5.14-5.14,2.576,2.564-3.174,5.14a.852.852,0,0,1-1.282.208Z" transform="translate(-123.584 -289.5)"/></g><path d="M283.834,361.7h-3.418a.916.916,0,1,0,0,1.831h3.418a.922.922,0,0,0,.916-.916A.907.907,0,0,0,283.834,361.7Z" transform="translate(-246.929 -291.234)"/><path d="M252.4,61.186l-4.981-1.85L244.884,56.9a.949.949,0,0,0-.586-.258V54.7a8.938,8.938,0,0,0,2.393-4.52,3.012,3.012,0,0,0,.647-.047,2.614,2.614,0,0,0,2.1-2.576v-.644a2.594,2.594,0,0,0-.806-1.874c.806-4.216.147-7.659-1.929-9.954-2.014-2.225-5.25-3.291-9.364-3.08a12.536,12.536,0,0,0-7.032,2.494,4.894,4.894,0,0,0-1.88.609,4.637,4.637,0,0,0-2.234,4.345,21.056,21.056,0,0,0,.635,5.106,2.6,2.6,0,0,0-1.489,2.354v.632a2.614,2.614,0,0,0,2.1,2.576,2.377,2.377,0,0,0,.647.047,8.891,8.891,0,0,0,2.393,4.52v1.944a.864.864,0,0,0-.586.258l-2.539,2.436-5.006,1.862a5.939,5.939,0,0,0-1.221.621.859.859,0,0,0-.244,1.218.945.945,0,0,0,.757.386.9.9,0,0,0,.513-.152,4.461,4.461,0,0,1,.855-.433l4.627-1.71,3.541,5.094a2.674,2.674,0,0,0,1.929,1.113,1.879,1.879,0,0,0,.256.012,2.75,2.75,0,0,0,1.294-.328L233.9,83.531a.893.893,0,0,0,.879.913h.037a.9.9,0,0,0,.916-.843l.708-15.33h1.9l.708,15.33a.907.907,0,0,0,.916.843H240a.909.909,0,0,0,.879-.913l-.769-16.536a2.714,2.714,0,0,0,1.294.328,1.877,1.877,0,0,0,.256-.012A2.636,2.636,0,0,0,243.59,66.2L247.13,61.1l4.627,1.71a4.154,4.154,0,0,1,1.648,1.1l-3.162,3.033a5.639,5.639,0,0,0-1.77,4.111V83.542a.916.916,0,0,0,1.831,0V71.07a3.987,3.987,0,0,1,1.233-2.869l2.784-2.67a4.145,4.145,0,0,1,.146,1.23l-.708,16.758a.9.9,0,0,0,.879.913h.037a.907.907,0,0,0,.916-.843l.708-16.758A5.827,5.827,0,0,0,252.4,61.186Zm-15.029.925L232.3,57.849V56.162a9.81,9.81,0,0,0,10.158,0v1.686Zm-9.364-13.69a1.164,1.164,0,0,1-.208-.012.853.853,0,0,1-.635-.855v-.632a.827.827,0,0,1,.647-.831.816.816,0,0,1,.781.293,1.261,1.261,0,0,0,.647.433,1.327,1.327,0,0,0,1.111-.176,6.713,6.713,0,0,0,1.5-1.405.855.855,0,0,0-.183-1.23.942.942,0,0,0-1.282.176,5.165,5.165,0,0,1-.708.738,2.713,2.713,0,0,0-.989-.5,19.548,19.548,0,0,1-.659-4.954,3.021,3.021,0,0,1,1.282-2.811,2.972,2.972,0,0,1,1.367-.422.973.973,0,0,0,.635-.246,10.5,10.5,0,0,1,6.129-2.225c3.528-.187,6.251.668,7.875,2.471s2.185,4.6,1.587,8.081a4.515,4.515,0,0,0-.781.047l-.855-1.979a.924.924,0,0,0-1.074-.515c-.085.023-8.546,2.073-12.087-2.155a.951.951,0,0,0-1.282-.141.85.85,0,0,0-.134,1.23c3.626,4.321,10.8,3.384,13.2,2.928l.659,1.534a1.514,1.514,0,0,0,1.734.855,1.868,1.868,0,0,1,.684-.047.833.833,0,0,1,.647.82v.644a.844.844,0,0,1-.635.855.637.637,0,0,1-.208.012,1.772,1.772,0,0,0-1.856,1.394,7.711,7.711,0,0,1-15.041,0A1.8,1.8,0,0,0,228.011,48.421Zm5.274,17.145a.783.783,0,0,1-.586-.34L229.134,60.1l1.428-1.37,5.47,4.591-2.112,2.026A.785.785,0,0,1,233.285,65.566Zm3.223.937.061-1.206.818-.785.818.785.061,1.206Zm5.555-1.277a.8.8,0,0,1-.586.34.82.82,0,0,1-.647-.223l-2.112-2.026,5.47-4.591,1.428,1.37Z" transform="translate(-196.361 -0.067)"/><path d="M29,65.721l-4.468-1.874-2.442-2.342a.949.949,0,0,0-.586-.258V59.866a9.092,9.092,0,0,0,4.114-5.9,2.468,2.468,0,0,0,.72-.07,2.645,2.645,0,0,0,2.027-2.565v-.644a2.59,2.59,0,0,0-1.172-2.155,9.671,9.671,0,0,0,.317-2.436,10.184,10.184,0,0,0-5.14-8.69,5.843,5.843,0,0,0-6.056-5.5,5.835,5.835,0,0,0-6.056,5.5,10.17,10.17,0,0,0-5.14,8.69,9.58,9.58,0,0,0,.317,2.424A2.615,2.615,0,0,0,4.264,50.7v.632a2.645,2.645,0,0,0,2.027,2.565,2.51,2.51,0,0,0,.72.07,9.009,9.009,0,0,0,4.114,5.9v1.382a.864.864,0,0,0-.586.258L8.1,63.848,3.629,65.721A5.819,5.819,0,0,0-.033,71.3L.5,83.534a.907.907,0,0,0,.916.843h.037a.9.9,0,0,0,.879-.913L1.8,71.214A3.9,3.9,0,0,1,2.384,69l2.405,2.764a4.77,4.77,0,0,1,1.172,3.115v8.6a.916.916,0,0,0,1.831,0V74.891a6.5,6.5,0,0,0-1.6-4.239L3.642,67.712a4.906,4.906,0,0,1,.7-.375L8.232,65.71,10.991,70a1.746,1.746,0,0,0,1.233.785,2.268,2.268,0,0,0,.281.023,1.782,1.782,0,0,0,1.148-.41L15.4,68.965V83.5a.916.916,0,0,0,1.831,0V68.965l1.746,1.429a1.781,1.781,0,0,0,1.148.41,2.268,2.268,0,0,0,.281-.023A1.783,1.783,0,0,0,21.637,70L24.4,65.71l3.895,1.628a4.906,4.906,0,0,1,.7.375l-2.552,2.939a6.455,6.455,0,0,0-1.6,4.239v8.6a.916.916,0,0,0,1.831,0v-8.6a4.747,4.747,0,0,1,1.172-3.115l2.405-2.764a4,4,0,0,1,.586,2.213l-.537,12.238a.893.893,0,0,0,.879.913h.037a.907.907,0,0,0,.916-.843L32.662,71.3A5.89,5.89,0,0,0,29,65.721ZM16.3,33.68a4.181,4.181,0,0,1,4.078,2.811,12,12,0,0,0-4.078-.714,11.726,11.726,0,0,0-4.078.714A4.166,4.166,0,0,1,16.3,33.68ZM8.781,53.6a1.772,1.772,0,0,0-1.856-1.394.908.908,0,0,1-.244-.023.857.857,0,0,1-.61-.855V50.7a.827.827,0,0,1,.647-.831.816.816,0,0,1,.781.293,1.261,1.261,0,0,0,.647.433,1.327,1.327,0,0,0,1.111-.176,6.5,6.5,0,0,0,1.477-1.382.855.855,0,0,0-.183-1.23.942.942,0,0,0-1.282.176,5,5,0,0,1-.7.726,2.682,2.682,0,0,0-1.38-.586,8.011,8.011,0,0,1-.269-2.014c0-4.731,4.2-8.572,9.364-8.572s9.364,3.841,9.364,8.572a7.491,7.491,0,0,1-.269,2.014,4.449,4.449,0,0,0-.708.117l-.684-.539a1.829,1.829,0,0,0-1.221-.386c-1.343.082-8.241.246-11.769-3.806A.94.94,0,0,0,9.709,43.4a.852.852,0,0,0-.11,1.241,13.226,13.226,0,0,0,7.606,4.029,23.14,23.14,0,0,0,5.653.41l1.074.843a.933.933,0,0,0,1.038.082,2.038,2.038,0,0,1,.9-.117.833.833,0,0,1,.647.82v.644a.812.812,0,0,1-.855.878,1.772,1.772,0,0,0-1.856,1.394,7.566,7.566,0,0,1-7.521,6.008A7.616,7.616,0,0,1,8.781,53.6ZM16.3,61.365a9.737,9.737,0,0,0,3.37-.6v1.815L16.3,65.815l-3.37-3.232V60.768A9.737,9.737,0,0,0,16.3,61.365Zm-3.8,7.647L9.746,64.726l1.416-1.358,3.8,3.642Zm7.594,0-2.454-2,3.8-3.642,1.416,1.358Z" transform="translate(0 0)"/><path d="M80.68,394.8H78.116a.916.916,0,0,0,0,1.831h2.576a.916.916,0,1,0-.012-1.831Z" transform="translate(-68.222 -320.825)"/></g></svg>