<svg xmlns="http://www.w3.org/2000/svg" width="39" height="64.219" viewBox="0 0 39 64.219"><defs><style>.a{fill:#f79a1b;}</style></defs><g transform="translate(13.069 3.901)"><g transform="translate(0 0)"><circle class="a" cx="5.979" cy="5.979" r="5.979"/></g></g><g transform="translate(0)"><path class="a" d="M38.474,104.97a2.422,2.422,0,1,0-3.885-2.894L22.1,118.863H15.644l-11.4-13.877A2.42,2.42,0,1,0,.5,108.055l12.054,14.676v16.083L5.652,161.581a2.9,2.9,0,1,0,5.548,1.679l6.443-21.215H19.9l2.094,20.671a2.9,2.9,0,0,0,5.771-.592c-2.526-24.892-2.35-23.229-2.382-23.437V122.572Z" transform="translate(0.046 -101.101)"/></g></svg>