<svg xmlns="http://www.w3.org/2000/svg" width="20.9" height="20.9" viewBox="0 0 20.9 20.9">
  <path id="icone-impressora" d="M18.288,7.838V3.153a1.307,1.307,0,0,0-.382-.924L16.057.382A1.306,1.306,0,0,0,15.134,0H3.919A1.306,1.306,0,0,0,2.612,1.306V7.838A2.612,2.612,0,0,0,0,10.45v4.572a.653.653,0,0,0,.653.653H2.612v3.919A1.306,1.306,0,0,0,3.919,20.9H16.981a1.306,1.306,0,0,0,1.306-1.306V15.675h1.959a.653.653,0,0,0,.653-.653V10.45A2.612,2.612,0,0,0,18.288,7.838Zm-2.613,10.45H5.225V14.369h10.45Zm0-9.144H5.225V2.612h7.838V4.572a.653.653,0,0,0,.653.653h1.959Zm1.959,2.939a.98.98,0,1,1,.98-.98A.98.98,0,0,1,17.634,12.083Z" fill="#16498b"/>
</svg>
