<svg xmlns="http://www.w3.org/2000/svg" width="52.373" height="68.912" viewBox="0 0 52.373 68.912">
  <g id="icone-proposta-recusada" transform="translate(-744 -2195)">
    <g id="icone-proposta-criada" transform="translate(-181.055 1713.912)">
      <g id="Icon_ionic-ios-document" data-name="Icon ionic-ios-document" transform="translate(917.742 477.15)">
        <path id="Caminho_30" data-name="Caminho 30" d="M23.008,16.471H34.534a.627.627,0,0,0,.633-.633h0a3.749,3.749,0,0,0-1.355-2.9L24.148,4.882a4.068,4.068,0,0,0-2.609-.937h0a.935.935,0,0,0-.937.937v9.183A2.4,2.4,0,0,0,23.008,16.471Z" transform="translate(24.519 0.006)" fill="#16498b"/>
        <path id="Caminho_31" data-name="Caminho 31" d="M41.394,11.72V3.938H12.825A5.529,5.529,0,0,0,7.312,9.45V67.337a5.529,5.529,0,0,0,5.513,5.513H54.173a5.529,5.529,0,0,0,5.513-5.513V19.473H49.147A7.764,7.764,0,0,1,41.394,11.72Z" transform="translate(0)" fill="#16498b"/>
      </g>
    </g>
    <g id="Grupo_1314" data-name="Grupo 1314" transform="translate(761 2220)">
      <path id="Caminho_187" data-name="Caminho 187" d="M219.518,276.417a2,2,0,0,0-2.821,0l-6.127,6.127-6.127-6.127a1.994,1.994,0,1,0-2.82,2.821l6.127,6.127-6.127,6.127a1.994,1.994,0,0,0,2.82,2.821l6.127-6.127,6.127,6.127a1.994,1.994,0,1,0,2.821-2.821l-6.127-6.127,6.127-6.127A1.994,1.994,0,0,0,219.518,276.417Z" transform="translate(-200.991 -275.787)" fill="#f14639"/>
      <path id="Caminho_188" data-name="Caminho 188" d="M217.652,294.491a2.028,2.028,0,0,1-1.443-.6l-6.094-6.094-6.094,6.094a2.041,2.041,0,1,1-2.886-2.886l6.094-6.094-6.094-6.094a2.041,2.041,0,0,1,2.886-2.886l6.094,6.094,6.094-6.094a2.041,2.041,0,1,1,2.886,2.886L213,284.912l6.094,6.094a2.041,2.041,0,0,1-1.443,3.484Zm-7.537-6.824,6.16,6.16a1.948,1.948,0,1,0,2.755-2.755l-6.16-6.16,6.16-6.16A1.948,1.948,0,1,0,216.275,276l-6.16,6.16-6.16-6.16a1.948,1.948,0,0,0-2.755,2.755l6.16,6.16-6.16,6.16a1.948,1.948,0,0,0,2.755,2.755Z" transform="translate(-200.536 -275.334)" fill="#f14639"/>
    </g>
  </g>
</svg>
