<svg xmlns="http://www.w3.org/2000/svg" width="167.943" height="56.5" viewBox="0 0 167.943 56.5">
  <g id="logo" transform="translate(-0.043 0.002)">
    <g id="Camada_1" data-name="Camada 1" transform="translate(0.043 -0.002)">
      <path id="Path_2" data-name="Path 2" d="M470.188,60.638a5.394,5.394,0,0,0-1-.063h-4.034L462.75,76.433h5.758a13.838,13.838,0,0,0,1.66-.133c4.482-.6,6.89-3.682,6.89-8.633C477.077,63.182,474.806,60.911,470.188,60.638Zm0,12.382a5.261,5.261,0,0,1-1.073.133h-1.474l1.408-9.3h1.139c1.737.2,2.543,1.272,2.543,3.616C472.731,70.54,471.8,72.416,470.188,73.02Z" transform="translate(-309.114 -40.46)" fill="#fff" fill-rule="evenodd"/>
      <path id="Path_3" data-name="Path 3" d="M54.035,38.98a32.088,32.088,0,0,0,4.821-10.037A23.506,23.506,0,0,0,58.992,16.5,21.386,21.386,0,0,0,50.83,4.518C45.471.5,37.24-.9,30.012.567A38.34,38.34,0,0,0,12.543,9,41.679,41.679,0,0,0,6.67,15.163a38.764,38.764,0,0,0-4.22,7.491c-2.072,4.619-3.679,12.119-1,19.258a21.612,21.612,0,0,0,6.359,9.1,22.579,22.579,0,0,0,9.42,4.632,30.741,30.741,0,0,0,14.52-.073,33.559,33.559,0,0,0,11.312-5.143,36.524,36.524,0,0,0,8.1-7.637,42.444,42.444,0,0,1-8.633,6.89A38.141,38.141,0,0,1,31.416,54.37,29.968,29.968,0,0,1,17.5,54.5,21.828,21.828,0,0,1,8.6,50.087a20.653,20.653,0,0,1-6.026-8.633c-2.47-6.76-1-13.853,1-18.4a33.589,33.589,0,0,1,4.1-7.089A37.64,37.64,0,0,1,13.35,9.94,36.822,36.822,0,0,1,30.218,1.775C37.24.3,45.07,1.775,50.09,5.587a19.3,19.3,0,0,1,7.693,11.246,25.691,25.691,0,0,1,.2,11.91A34.721,34.721,0,0,1,54.035,38.98Z" transform="translate(-0.043 0.002)" fill="#fff" fill-rule="evenodd"/>
      <path id="Path_4" data-name="Path 4" d="M36.443,85.245c-2.324,0-2.743-.332-2.945-1.873L32.027,57.208c-.066-1.408-.332-1.66-1.328-1.879-1.082-.246-5.3-.867-5.3-.867l-.2-.332H40.258c1.942,0,2.271.332,2.411,2.145l.87,19.872S60.14,56.537,60.4,55.87c.133-.4,0-.664-1.139-.8-1.205-.07-6.558-.6-6.558-.6l-.4-.332H70.171c1.272,0,1.939.332,1.939.94a1.388,1.388,0,0,1-.468,1L45.61,85.248Z" transform="translate(-16.847 -36.156)" fill="#fff" fill-rule="evenodd"/>
      <path id="Path_5" data-name="Path 5" d="M213.057,60.58l-7.089,15.858h-4.751L198.74,60.58h4.217s1.468,9.961,1.468,10.7c.139-.737,4.419-10.7,4.419-10.7Z" transform="translate(-132.765 -40.465)" fill="#fff" fill-rule="evenodd"/>
      <path id="Path_6" data-name="Path 6" d="M240.791,60.58h4.35l-2.414,15.858H238.45l2.341-15.858Z" transform="translate(-159.29 -40.465)" fill="#fff" fill-rule="evenodd"/>
      <path id="Path_7" data-name="Path 7" d="M265.171,63.99H261.02l.468-3.41h12.581l-.535,3.41h-4.15l-1.873,12.448h-4.283l1.942-12.448Z" transform="translate(-174.366 -40.465)" fill="#fff" fill-rule="evenodd"/>
      <path id="Path_8" data-name="Path 8" d="M292.3,70.08h1.408v3.413H290.83l-1.272,2.945H285.81L292.9,60.58h.807V66.8Zm1.408-3.277.066-.405a16.7,16.7,0,0,0,.734-1.992,18.269,18.269,0,0,0,.066,1.992l.468,3.682h-1.328v3.413h1.737l.468,2.945H300L297.594,60.58h-3.885Z" transform="translate(-190.925 -40.465)" fill="#fff" fill-rule="evenodd"/>
      <path id="Path_9" data-name="Path 9" d="M334.44,60.58h4.214l-1.873,12.578h6.292l-.471,3.281H331.96l2.48-15.858Z" transform="translate(-221.751 -40.465)" fill="#fff" fill-rule="evenodd"/>
      <path id="Path_10" data-name="Path 10" d="M367.84,76.438l2.344-15.858h6.827l1.205,8.025,3.34-8.025h6.358l-2.407,15.858h-4.151s1.879-11.913,2.009-12.319c-.468,1.076-5.419,12.319-5.419,12.319H375.53l-1.806-11.913-1.737,11.913Z" transform="translate(-245.718 -40.465)" fill="#fff" fill-rule="evenodd"/>
      <path id="Path_11" data-name="Path 11" d="M427.764,60.58h10.575l-.471,3.277h-6.352l-.471,2.945h4.014l-.535,3.277h-3.951l-.465,3.078h6.757l-.535,3.281H425.29l2.474-15.858Z" transform="translate(-284.092 -40.465)" fill="#fff" fill-rule="evenodd"/>
    </g>
  </g>
</svg>
