<svg xmlns="http://www.w3.org/2000/svg" xmlns:xlink="http://www.w3.org/1999/xlink" width="70.025" height="68.435" viewBox="0 0 70.025 68.435"><defs><style>.a{fill:#6b4500;}.b{fill:#3d78c4;}.c{fill:#fbce8f;}.d{fill:#f79a1b;}.e{fill:#fde0b8;}.f{fill:#16498b;}.g{fill:url(#a);}.h{fill:url(#b);}.i{fill:url(#c);}.j{fill:url(#d);}.k{fill:url(#e);}.l{fill:url(#f);}.m{fill:url(#g);}.n{fill:url(#h);}.o{fill:url(#i);}.p{fill:url(#j);}.q{fill:url(#k);}.r{fill:url(#l);}.s{fill:url(#m);}.t{fill:url(#n);}.u{fill:url(#o);}.v{fill:url(#p);}.w{fill:url(#q);}.x{fill:url(#r);}.y{fill:url(#s);}.z{fill:url(#t);}.aa{fill:url(#u);}.ab{fill:url(#v);}.ac{fill:url(#w);}.ad{fill:url(#x);}</style><linearGradient id="a" x1="7.077" y1="0.392" x2="-0.944" y2="0.525" gradientUnits="objectBoundingBox"><stop offset="0" stop-color="#16498b"/><stop offset="0.989" stop-color="#f79a1b"/></linearGradient><linearGradient id="b" x1="3.132" y1="0.458" x2="-4.896" y2="0.592" xlink:href="#a"/><linearGradient id="c" x1="5.133" y1="0.426" x2="-2.924" y2="0.559" xlink:href="#a"/><linearGradient id="d" x1="9.002" y1="0.357" x2="0.952" y2="0.491" xlink:href="#a"/><linearGradient id="e" x1="1.173" y1="0.494" x2="-6.84" y2="0.628" xlink:href="#a"/><linearGradient id="f" x1="-0.703" y1="0.52" x2="-8.706" y2="0.652" xlink:href="#a"/><linearGradient id="g" x1="0.161" y1="1.524" x2="-3.705" y2="13.349" xlink:href="#a"/><linearGradient id="h" x1="2.371" y1="-5.193" x2="-1.494" y2="6.558" xlink:href="#a"/><linearGradient id="i" x1="2.992" y1="-7.048" x2="-0.872" y2="4.653" xlink:href="#a"/><linearGradient id="j" x1="1.752" y1="-3.358" x2="-2.087" y2="8.451" xlink:href="#a"/><linearGradient id="k" x1="0.653" y1="0.05" x2="-3.176" y2="11.798" xlink:href="#a"/><linearGradient id="l" x1="5.318" y1="-14.226" x2="1.473" y2="-2.479" xlink:href="#a"/><linearGradient id="m" x1="1.181" y1="-1.58" x2="-2.685" y2="10.161" xlink:href="#a"/><linearGradient id="n" x1="4.802" y1="-12.592" x2="0.939" y2="-0.835" xlink:href="#a"/><linearGradient id="o" x1="4.225" y1="-10.793" x2="0.359" y2="0.929" xlink:href="#a"/><linearGradient id="p" x1="3.611" y1="-8.964" x2="-0.25" y2="2.773" xlink:href="#a"/><linearGradient id="q" x1="-1.446" y1="-3.578" x2="4.611" y2="9.11" xlink:href="#a"/><linearGradient id="r" x1="-4.123" y1="-9.125" x2="1.938" y2="3.495" xlink:href="#a"/><linearGradient id="s" x1="-3.25" y1="-7.269" x2="2.82" y2="5.298" xlink:href="#a"/><linearGradient id="t" x1="-2.329" y1="-5.399" x2="3.681" y2="7.152" xlink:href="#a"/><linearGradient id="u" x1="-0.576" y1="-1.746" x2="5.483" y2="10.937" xlink:href="#a"/><linearGradient id="v" x1="-4.953" y1="-10.893" x2="1.11" y2="1.772" xlink:href="#a"/><linearGradient id="w" x1="1.034" y1="1.614" x2="7.079" y2="14.167" xlink:href="#a"/><linearGradient id="x" x1="0.268" y1="0.011" x2="6.303" y2="12.644" xlink:href="#a"/></defs><g transform="translate(0.05 -6)"><path class="a" d="M199.944,197.2,184.5,181.76a2.468,2.468,0,0,1,0-3.5,2.465,2.465,0,0,1,3.5,0l-3.98-3.98a2.487,2.487,0,0,1-.725-1.751,3.861,3.861,0,0,1,.027-.4,2.493,2.493,0,0,1,.7-1.354,2.434,2.434,0,0,1,1.34-.684,2.474,2.474,0,0,1,1.928.492l-1.518-1.518a2.487,2.487,0,0,1-.725-1.751,3.606,3.606,0,0,1,.027-.4,2.566,2.566,0,0,1,.684-1.354,2.465,2.465,0,0,1,3.5,0L191,167.3a2.476,2.476,0,1,1,3.5-3.5l10.038,10.038.027-.041a4.363,4.363,0,0,1,1.751-1.08,4.528,4.528,0,0,1,4.65,1.094l4.677,4.677a4.793,4.793,0,0,1,1.409,3.392v2.927a5.167,5.167,0,0,0,1.518,3.652l1.039,1.039L207.671,201.44l-1.34-1.34a5.165,5.165,0,0,0-3.323-1.5A4.889,4.889,0,0,1,199.944,197.2Z" transform="translate(-158.275 -135.593)"/><path class="b" d="M353.763,361.516l13.553-13.553a1.131,1.131,0,0,1,1.614,0l4.828,4.828a1.131,1.131,0,0,1,0,1.614L360.2,367.958a1.131,1.131,0,0,1-1.614,0l-4.828-4.828A1.131,1.131,0,0,1,353.763,361.516Z" transform="translate(-305.133 -294.904)"/><path class="c" d="M82.78,197.2l15.44-15.44a2.468,2.468,0,0,0,0-3.5,2.465,2.465,0,0,0-3.5,0l3.98-3.98a2.487,2.487,0,0,0,.725-1.751,3.865,3.865,0,0,0-.027-.4,2.493,2.493,0,0,0-.7-1.354,2.434,2.434,0,0,0-1.34-.684,2.474,2.474,0,0,0-1.928.492l1.518-1.518a2.487,2.487,0,0,0,.725-1.751,3.61,3.61,0,0,0-.027-.4,2.565,2.565,0,0,0-.684-1.354,2.465,2.465,0,0,0-3.5,0L91.71,167.3a2.476,2.476,0,1,0-3.5-3.5L78.171,173.842l-.027-.041a4.363,4.363,0,0,0-1.751-1.08,4.528,4.528,0,0,0-4.65,1.094l-4.677,4.677a4.793,4.793,0,0,0-1.409,3.392v2.927a5.167,5.167,0,0,1-1.518,3.652L63.1,189.5,75.039,201.44l1.34-1.34a5.165,5.165,0,0,1,3.323-1.5A4.892,4.892,0,0,0,82.78,197.2Z" transform="translate(-54.514 -135.593)"/><path class="d" d="M27.758,361.516,14.2,347.964a1.131,1.131,0,0,0-1.614,0l-4.828,4.828a1.131,1.131,0,0,0,0,1.614l13.553,13.553a1.131,1.131,0,0,0,1.614,0l4.828-4.828A1.131,1.131,0,0,0,27.758,361.516Z" transform="translate(-6.453 -294.904)"/><path class="e" d="M174.543,88.565v21.841a2.475,2.475,0,0,1-2.475,2.475,2.541,2.541,0,0,1-1.45-.465,2.485,2.485,0,0,1-1.026-2.01v5.621a2.459,2.459,0,0,1-.725,1.751,2.732,2.732,0,0,1-.3.26,2.414,2.414,0,0,1-1.45.465,2.487,2.487,0,0,1-1.436-.451,2.452,2.452,0,0,1-1.012-1.71v2.147a2.459,2.459,0,0,1-.725,1.751,1.987,1.987,0,0,1-.315.26,2.5,2.5,0,0,1-1.436.465,2.541,2.541,0,0,1-1.45-.465,2.485,2.485,0,0,1-1.026-2.01v-2.448a2.505,2.505,0,0,1-1.026,2.01,2.414,2.414,0,0,1-1.45.465,2.475,2.475,0,0,1-2.475-2.475V101.831l-.055.014a4.424,4.424,0,0,1-2-.465,4.533,4.533,0,0,1-2.516-4.062V90.7a4.793,4.793,0,0,1,1.409-3.392l2.065-2.065a5.153,5.153,0,0,0,1.5-3.652V80.1h16.876v1.887a5.12,5.12,0,0,0,1.286,3.405A4.75,4.75,0,0,1,174.543,88.565Z" transform="translate(-129.702 -63.966)"/><path class="e" d="M174.543,88.565v21.841a2.475,2.475,0,0,1-2.475,2.475h-.123a2.463,2.463,0,0,1-1.327-.465h0a2.485,2.485,0,0,1-1.026-2.01v5.621a2.459,2.459,0,0,1-.725,1.751,2.732,2.732,0,0,1-.3.26,2.414,2.414,0,0,1-1.45.465,2.487,2.487,0,0,1-1.436-.451,2.452,2.452,0,0,1-1.012-1.71v2.147a2.459,2.459,0,0,1-.725,1.751,1.987,1.987,0,0,1-.315.26,2.5,2.5,0,0,1-1.436.465,2.541,2.541,0,0,1-1.45-.465,2.485,2.485,0,0,1-1.026-2.01v-2.448a2.505,2.505,0,0,1-1.026,2.01,2.414,2.414,0,0,1-1.45.465,2.475,2.475,0,0,1-2.475-2.475V101.831l-.055.014a4.424,4.424,0,0,1-2-.465,4.533,4.533,0,0,1-2.516-4.062V90.7a4.793,4.793,0,0,1,1.409-3.392l2.065-2.065a5.155,5.155,0,0,0,1.286-2.12,5.264,5.264,0,0,0,.232-1.532V80.1h16.876v1.887a4.389,4.389,0,0,0,.164,1.272,5.024,5.024,0,0,0,1.121,2.133A4.833,4.833,0,0,1,174.543,88.565Z" transform="translate(-129.702 -63.966)"/><path class="f" d="M190.009,22.608h-19.16a1.147,1.147,0,0,1-1.149-1.149V14.649a1.147,1.147,0,0,1,1.149-1.149h19.16a1.147,1.147,0,0,1,1.149,1.149v6.824A1.153,1.153,0,0,1,190.009,22.608Z" transform="translate(-146.535 -6.474)"/><path class="g" d="M202.593,453.775l-.205,1,.205-1a1.031,1.031,0,0,0-1.217.807,1.018,1.018,0,0,0,.807,1.2h.014a.905.905,0,0,0,.191.014,1.036,1.036,0,0,0,1.012-.834A1.021,1.021,0,0,0,202.593,453.775Z" transform="translate(-173.861 -386.52)"/><path class="h" d="M261.885,456.268l.1,1.026-.1-1.026a1.021,1.021,0,0,0,.1,2.038h.137a1.025,1.025,0,1,0-.232-2.038Z" transform="translate(-225.318 -388.685)"/><path class="i" d="M232.173,457.192h-.014a1.027,1.027,0,0,0-.082,2.051h.041a1.026,1.026,0,0,0,.055-2.051Z" transform="translate(-199.53 -389.486)"/><path class="j" d="M174.038,445.915h0a1.02,1.02,0,0,0-1.313.615,1.032,1.032,0,0,0,.629,1.313.994.994,0,0,0,.342.055,1.02,1.02,0,0,0,.342-1.983Z" transform="translate(-149.095 -379.699)"/><path class="k" d="M291.143,450.8l.246,1-.246-1a1.021,1.021,0,0,0,.26,2.01,1.676,1.676,0,0,0,.26-.027s.027,0,.027-.014a1.018,1.018,0,0,0,.711-1.258A1.052,1.052,0,0,0,291.143,450.8Z" transform="translate(-250.705 -383.945)"/><path class="l" d="M319.179,441.031l.41.944-.41-.944a1.027,1.027,0,0,0,.41,1.969,1.1,1.1,0,0,0,.41-.082l.027-.014a1.028,1.028,0,0,0-.848-1.874Z" transform="translate(-275.034 -375.458)"/><path class="m" d="M147.581,86.779a1.093,1.093,0,0,0,.492-.123,1.022,1.022,0,0,0-.957-1.805H147.1a1,1,0,0,0-.41,1.381A.962.962,0,0,0,147.581,86.779Z" transform="translate(-126.563 -67.964)"/><path class="n" d="M63.807,171.274a1,1,0,0,0,.479.123,1.021,1.021,0,0,0,.9-.547l.014-.041a1.025,1.025,0,1,0-1.395.465Z" transform="translate(-54.646 -140.999)"/><path class="o" d="M52.311,198.986a.92.92,0,0,0,.328.055,1.04,1.04,0,0,0,.971-.7l.014-.041a1.025,1.025,0,1,0-1.313.684Z" transform="translate(-44.599 -164.855)"/><path class="p" d="M79.409,145.469a.985.985,0,0,0,.6.191,1.05,1.05,0,0,0,.834-.424l.014-.014a1.023,1.023,0,0,0-.232-1.422,1.04,1.04,0,0,0-1.436.232l.821.6-.834-.6A1.027,1.027,0,0,0,79.409,145.469Z" transform="translate(-68.224 -118.791)"/><path class="q" d="M121.955,102.893a1.01,1.01,0,0,0,.615-.205,1.027,1.027,0,1,0-1.217-1.655l-.027.014a1.012,1.012,0,0,0-.191,1.436A1.029,1.029,0,0,0,121.955,102.893Z" transform="translate(-104.424 -81.863)"/><path class="r" d="M49.683,316.968a1.038,1.038,0,0,0,.985.725,1.14,1.14,0,0,0,.3-.041,1.032,1.032,0,1,0-1.3-.725C49.669,316.941,49.683,316.955,49.683,316.968Z" transform="translate(-42.888 -267.287)"/><path class="s" d="M99.49,122.687a1.061,1.061,0,0,0,.739-.315,1.025,1.025,0,0,0-1.45-1.45l-.014.014a1.032,1.032,0,0,0,.014,1.45A.962.962,0,0,0,99.49,122.687Z" transform="translate(-85.05 -98.949)"/><path class="t" d="M45.406,287.041a1.025,1.025,0,0,0-1.135-.889,1.037,1.037,0,0,0-.9,1.135v.041a1.017,1.017,0,0,0,1.012.875.561.561,0,0,0,.15-.014A1.011,1.011,0,0,0,45.406,287.041Z" transform="translate(-37.476 -241.831)"/><path class="u" d="M42.6,258.165h.027a1.028,1.028,0,0,0,1.026-1v-.041a1.026,1.026,0,0,0-2.051-.014A1.016,1.016,0,0,0,42.6,258.165Z" transform="translate(-35.952 -215.896)"/><path class="v" d="M45.2,228.268a.779.779,0,0,0,.178.014,1.038,1.038,0,0,0,1.012-.848.05.05,0,0,1,.014-.041,1.024,1.024,0,1,0-1.2.875Z" transform="translate(-38.336 -190.102)"/><path class="w" d="M403.114,149.436a1.032,1.032,0,0,0,.848.438.982.982,0,0,0,.574-.178,1.015,1.015,0,0,0,.26-1.422l-.848.574.848-.574a1.024,1.024,0,1,0-1.7,1.149Z" transform="translate(-347.864 -122.429)"/><path class="x" d="M436.856,235.053a1.027,1.027,0,0,0-.9,1.135v.041a1.018,1.018,0,0,0,1.012.875.56.56,0,0,0,.15-.014,1.027,1.027,0,0,0-.26-2.038Z" transform="translate(-376.368 -197.721)"/><path class="y" d="M429.663,205.6h0a1.03,1.03,0,0,0,.985.752,1.042,1.042,0,0,0,.287-.041,1.02,1.02,0,0,0,.7-1.272v-.014a1.02,1.02,0,0,0-1.272-.7A1.042,1.042,0,0,0,429.663,205.6Z" transform="translate(-370.912 -171.165)"/><path class="z" d="M418.676,176.457a1.023,1.023,0,0,0,.93.574.915.915,0,0,0,.451-.109,1.012,1.012,0,0,0,.465-1.368l-.93.438.93-.438a1.028,1.028,0,0,0-1.86.875Z" transform="translate(-361.362 -145.854)"/><path class="aa" d="M383.6,125.253a1.037,1.037,0,0,0,.738.315,1.059,1.059,0,0,0,.725-.287,1.03,1.03,0,1,0-1.477-.041Z" transform="translate(-330.939 -101.447)"/><path class="ab" d="M438.345,266.4a1.027,1.027,0,0,0-.082,2.051h.055a1.032,1.032,0,0,0,1.026-.971v-.041A1.013,1.013,0,0,0,438.345,266.4Z" transform="translate(-377.53 -224.786)"/><path class="ac" d="M334.086,87.1l.027.014a1.01,1.01,0,0,0,1.381-.424,1.034,1.034,0,0,0-.41-1.395l-.492.9.492-.9a1.032,1.032,0,0,0-1,1.805Z" transform="translate(-287.986 -68.338)"/><path class="ad" d="M360.263,104.2l.014.014a1.039,1.039,0,0,0,.615.205,1.01,1.01,0,0,0,.821-.41,1.024,1.024,0,0,0-.191-1.436h-.014a1.024,1.024,0,1,0-1.245,1.627Z" transform="translate(-310.689 -83.182)"/><path d="M69.349,57.135l-4.814-4.828a2.146,2.146,0,0,0-3.063,0l-.109.109-.315-.315a4.139,4.139,0,0,1-.9-1.34,1.072,1.072,0,0,0-.068-.191,4.326,4.326,0,0,1-.232-1.395s-.027-3.446-.041-3.569a5.746,5.746,0,0,0-1.668-3.474l-4.677-4.677a5.515,5.515,0,0,0-3.925-1.627,5.388,5.388,0,0,0-3.159,1l-.492-.492V24.6a5.861,5.861,0,0,0-1.45-3.843,4.162,4.162,0,0,1-1.026-2.735V17.16h.068a2.18,2.18,0,0,0,2.174-2.174V8.174A2.18,2.18,0,0,0,43.474,6H24.314a2.18,2.18,0,0,0-2.174,2.174V15a2.18,2.18,0,0,0,2.174,2.174h.164v.451a4.062,4.062,0,0,1-1.217,2.927L21.2,22.616a5.781,5.781,0,0,0-1.7,4.116v6.619a5.5,5.5,0,0,0,.6,2.5,5.534,5.534,0,0,0-3.6,1.614l-4.677,4.677a5.781,5.781,0,0,0-1.7,4.116v2.927a4.105,4.105,0,0,1-1.2,2.927l-.315.315h0L8.5,52.321a2.146,2.146,0,0,0-3.063,0L.586,57.135a2.163,2.163,0,0,0,0,3.063l1.655,1.655A1.025,1.025,0,1,0,3.69,60.4L2.036,58.749a.125.125,0,0,1,0-.164L6.85,53.757a.125.125,0,0,1,.164,0l.834.834h0L19.281,66.038l1.286,1.286a.125.125,0,0,1,0,.164l-4.814,4.841a.125.125,0,0,1-.164,0l-9-9.013a1.025,1.025,0,0,0-1.45,1.45l9,9.013a2.146,2.146,0,0,0,3.063,0l4.814-4.828a2.163,2.163,0,0,0,0-3.063l-.055-.055.6-.6a4.151,4.151,0,0,1,2.653-1.2,5.839,5.839,0,0,0,3.734-1.7L33.367,57.9a3.51,3.51,0,0,0,2.544-2.681,3.424,3.424,0,0,0,1.5.342,3.508,3.508,0,0,0,3.5-3.5V49.627a3.406,3.406,0,0,0,1.45.315,3.508,3.508,0,0,0,3.5-3.5V39.233l3.159,3.173a1.024,1.024,0,0,0,1.45,0,1.032,1.032,0,0,0,0-1.45L47.85,38.317a3.379,3.379,0,0,1,1.682-.424,3.5,3.5,0,0,1,2.475,1.026L56.685,43.6a3.745,3.745,0,0,1,1.108,2.667v2.927A6.154,6.154,0,0,0,59.6,53.565l.315.315-1.5,1.491-9,9.013-.506-.506-.014-.014-.082-.082a6.173,6.173,0,0,0-3.966-1.805,3.779,3.779,0,0,1-2.421-1.094l-3.364-3.351a1.025,1.025,0,1,0-1.45,1.45l3.364,3.351a5.839,5.839,0,0,0,3.734,1.7,4.151,4.151,0,0,1,2.653,1.2l.055.055.082.082.479.479-.055.055a2.163,2.163,0,0,0,0,3.063l4.814,4.828a2.146,2.146,0,0,0,3.063,0L69.349,60.226A2.221,2.221,0,0,0,69.349,57.135ZM27.514,60.882a3.749,3.749,0,0,1-2.421,1.094,6.112,6.112,0,0,0-3.966,1.805l-.6.6-.547-.547-.027-.027-9.915-9.942.315-.315a6.154,6.154,0,0,0,1.805-4.376V46.249a3.745,3.745,0,0,1,1.108-2.667L17.941,38.9a3.5,3.5,0,0,1,2.475-1.026,3.39,3.39,0,0,1,1.682.438l-2.639,2.639a1.032,1.032,0,0,0,0,1.45,1.024,1.024,0,0,0,1.45,0l3.145-3.159v12.8a3.508,3.508,0,0,0,5.019,3.159,3.546,3.546,0,0,0,1.737,2.366Zm16.3-14.442a1.45,1.45,0,1,1-2.9,0V34.993a1.026,1.026,0,0,0-2.051,0V52.061a1.445,1.445,0,0,1-2.872.232V34.98a1.033,1.033,0,0,0-1.026-1.026,1.077,1.077,0,0,0-.506.137,1.032,1.032,0,0,0-.547.9V52.061a3.363,3.363,0,0,0,.027.383v2.065a1.442,1.442,0,0,1-1.45,1.45,1.459,1.459,0,0,1-1.45-1.45V34.966a1.026,1.026,0,1,0-2.051,0v17.1a1.442,1.442,0,0,1-1.45,1.45,1.459,1.459,0,0,1-1.45-1.45V32.983a1.026,1.026,0,1,0-2.051,0v3.528a1.036,1.036,0,0,0-.246.123,3.5,3.5,0,0,1-2.27-3.282V26.733a3.745,3.745,0,0,1,1.108-2.667L24.7,22A6.154,6.154,0,0,0,26.5,17.625v-.451h2.065a1.026,1.026,0,1,0,0-2.051H24.3A.123.123,0,0,1,24.177,15V8.174a.123.123,0,0,1,.123-.123H43.46a.123.123,0,0,1,.123.123V15a.123.123,0,0,1-.123.123H33.395a1.026,1.026,0,1,0,0,2.051h7.946v.862a6.241,6.241,0,0,0,1.532,4.089,3.769,3.769,0,0,1,.93,2.489V46.44ZM67.9,58.762,54.347,72.329a.1.1,0,0,1-.164,0L49.368,67.5a.125.125,0,0,1,0-.164l.78-.78h0l7.864-7.877,4.91-4.91a.125.125,0,0,1,.164,0L67.9,58.6A.124.124,0,0,1,67.9,58.762Z" transform="translate(0)"/></g></svg>