<svg xmlns="http://www.w3.org/2000/svg" width="35.152" height="60.319" viewBox="0 0 35.152 60.319"><defs><style>.a{fill:#015244;}</style></defs><g transform="translate(-1.366 -3.901)"><g transform="translate(13.069 3.901)"><g transform="translate(0 0)"><circle class="a" cx="5.979" cy="5.979" r="5.979"/></g></g><g transform="translate(0)"><path class="a" d="M25.173,118.863H12.559s-.028,3.766,0,3.869v16.083L5.652,161.581a2.9,2.9,0,1,0,5.548,1.679l6.443-21.215H19.9l2.094,20.671a2.9,2.9,0,0,0,5.771-.592c-2.526-24.892-2.35-23.229-2.382-23.437V122.572Z" transform="translate(0.046 -101.101)"/><path class="a" d="M1.667,0H5A0,0,0,0,1,5,0V24.5A2.5,2.5,0,0,1,2.5,27h0A2.5,2.5,0,0,1,0,24.5V1.667A1.667,1.667,0,0,1,1.667,0Z" transform="matrix(0.921, 0.391, -0.391, 0.921, 11.915, 17.096)"/><path class="a" d="M2.5,0h0A2.5,2.5,0,0,1,5,2.5V27a0,0,0,0,1,0,0H1.667A1.667,1.667,0,0,1,0,25.333V2.5A2.5,2.5,0,0,1,2.5,0Z" transform="matrix(-0.921, 0.391, -0.391, -0.921, 36.518, 41.95)"/></g></g></svg>