<svg xmlns="http://www.w3.org/2000/svg" width="32.23" height="56.961" viewBox="0 0 32.23 56.961">
  <path id="icone-valor-total" d="M28.045,31.426c-7.183-1.867-9.493-3.782-9.493-6.788,0-3.449,3.18-5.87,8.544-5.87,5.633,0,7.721,2.69,7.911,6.645H42c-.206-5.459-3.544-10.427-10.158-12.057V6.427H22.349v6.835c-6.139,1.345-11.076,5.3-11.076,11.424,0,7.31,6.06,10.949,14.873,13.069,7.927,1.9,9.493,4.668,9.493,7.642,0,2.168-1.535,5.649-8.544,5.649-6.519,0-9.1-2.927-9.43-6.645H10.688c.4,6.93,5.569,10.807,11.661,12.12v6.867h9.493v-6.8C38,55.4,42.918,51.837,42.918,45.334c0-8.956-7.69-12.025-14.873-13.908Z" transform="translate(-10.688 -6.427)" fill="#015244"/>
</svg>
