<svg xmlns="http://www.w3.org/2000/svg" width="69.176" height="69.177" viewBox="0 0 69.176 69.177">
  <g id="icone_Assinatura_rejeitada" data-name="icone_Assinatura rejeitada" transform="translate(-599.412 -2195.411)">
    <g id="icone-caneta" transform="translate(-326 1548)">
      <path id="Icon_awesome-pen-fancy" data-name="Icon awesome-pen-fancy" d="M10.516,37.578a4.251,4.251,0,0,0-2.688,2.688L0,63.75l.623.623L12.96,52.036A4.088,4.088,0,0,1,12.751,51,4.25,4.25,0,1,1,17,55.25a4.088,4.088,0,0,1-1.036-.209L3.628,67.379,4.25,68l23.484-7.828a4.248,4.248,0,0,0,2.688-2.688l4.392-11.166L21.682,33.186ZM49.041,3.761,24.722,30.256l13,13L64.212,18.933C75.491,8.962,58.933-7.429,49.041,3.761Z" transform="matrix(1, -0.017, 0.017, 1, 925.412, 648.598)" fill="#16498b"/>
    </g>
    <g id="Grupo_1313" data-name="Grupo 1313" transform="translate(643.844 2225.572)">
      <path id="Caminho_187" data-name="Caminho 187" d="M219.518,276.417a2,2,0,0,0-2.821,0l-6.127,6.127-6.127-6.127a1.994,1.994,0,1,0-2.82,2.821l6.127,6.127-6.127,6.127a1.994,1.994,0,0,0,2.82,2.821l6.127-6.127,6.127,6.127a1.994,1.994,0,1,0,2.821-2.821l-6.127-6.127,6.127-6.127A1.994,1.994,0,0,0,219.518,276.417Z" transform="translate(-200.991 -275.787)" fill="#f14639"/>
      <path id="Caminho_188" data-name="Caminho 188" d="M217.652,294.491a2.028,2.028,0,0,1-1.443-.6l-6.094-6.094-6.094,6.094a2.041,2.041,0,1,1-2.886-2.886l6.094-6.094-6.094-6.094a2.041,2.041,0,0,1,2.886-2.886l6.094,6.094,6.094-6.094a2.041,2.041,0,1,1,2.886,2.886L213,284.912l6.094,6.094a2.041,2.041,0,0,1-1.443,3.484Zm-7.537-6.824,6.16,6.16a1.948,1.948,0,1,0,2.755-2.755l-6.16-6.16,6.16-6.16A1.948,1.948,0,1,0,216.275,276l-6.16,6.16-6.16-6.16a1.948,1.948,0,0,0-2.755,2.755l6.16,6.16-6.16,6.16a1.948,1.948,0,0,0,2.755,2.755Z" transform="translate(-200.536 -275.334)" fill="#f14639"/>
    </g>
  </g>
</svg>
